<svg xmlns="http://www.w3.org/2000/svg" viewBox="0 0 512 512"><!--!Font Awesome Free 6.7.2 by @fontawesome - https://fontawesome.com License - https://fontawesome.com/license/free Copyright 2025 Fonticons, Inc.--><path d="M256 8C119 8 8 119 8 256s111 248 248 248 248-111 248-248S393 8 256 8zm0 448c-110.5 0-200-89.5-200-200 0-110.5 89.5-200 200-200 110.5 0 200 89.5 200 200 0 110.5-89.5 200-200 200zm107.4-101.1c-9.6 9.7-45.5 41.4-104.1 41.4-82.4 0-140.5-61.4-140.5-141.6 0-79.2 60.3-139.4 139.8-139.4 55.5 0 88.7 26.6 97.6 34.8a12 12 0 0 1 1.9 15.3l-18.2 28.1c-3.8 6-12 7.3-17.5 2.9-8.6-6.8-31.8-22.5-61.7-22.5-48.3 0-77.9 35.3-77.9 80.1 0 41.6 26.9 83.7 78.3 83.7 32.7 0 56.8-19 65.7-27.2 5.3-4.9 13.6-4 17.8 1.7l19.9 27.2a11.9 11.9 0 0 1 -1.2 15.5z"/></svg>
